{
  "source": "C:\\Users\\Peter\\Desktop\\stuff\\MIUN\\quantitative_research\\video_compression\\videos\\UVG\\HoneyBee_1920x1080_120fps_420_8bit_YUV.y4m",
  "output": "C:\\Users\\Peter\\Desktop\\stuff\\MIUN\\quantitative_research\\video_compression\\compressed_videos\\UVG\\h264\\2.5\\HoneyBee_1920x1080_120fps_420_8bit_YUV_h264.mp4",
  "codec": "h264",
  "ok": "[yuv4mpegpipe @ 0000021d03195ec0] Stream #0: not enough frames to estimate rate; consider increasing probesize\nInput #0, yuv4mpegpipe, from 'C:\\Users\\Peter\\Desktop\\stuff\\MIUN\\quantitative_research\\video_compression\\videos\\UVG\\HoneyBee_1920x1080_120fps_420_8bit_YUV.y4m':\n  Duration: 00:00:05.00, start: 0.000000, bitrate: 2985989 kb/s\n  Stream #0:0: Video: rawvideo (I420 / 0x30323449), yuv420p(progressive), 1920x1080, 120 fps, 120 tbr, 120 tbn\n[out#0/mp4 @ 0000021d03199ac0] Codec AVOption b:a (set bitrate (in bits/s)) has not been used for any stream. The most likely reason is either wrong type (e.g. a video option with no video streams) or that it is a private option of some decoder which was not actually used for any stream.\nStream mapping:\n  Stream #0:0 -> #0:0 (rawvideo (native) -> h264 (libx264))\nPress [q] to stop, [?] for help\n[libx264 @ 0000021d0319cb80] using cpu capabilities: MMX2 SSE2Fast SSSE3 SSE4.2 AVX FMA3 BMI2 AVX2\n[libx264 @ 0000021d0319cb80] profile High, level 5.1, 4:2:0, 8-bit\n[libx264 @ 0000021d0319cb80] 264 - core 165 r3222 b35605a - H.264/MPEG-4 AVC codec - Copyleft 2003-2025 - http://www.videolan.org/x264.html - options: cabac=1 ref=5 deblock=1:0:0 analyse=0x3:0x113 me=hex subme=8 psy=1 psy_rd=1.00:0.00 mixed_ref=1 me_range=16 chroma_me=1 trellis=2 8x8dct=1 cqm=0 deadzone=21,11 fast_pskip=1 chroma_qp_offset=-2 threads=18 lookahead_threads=3 sliced_threads=0 nr=0 decimate=1 interlaced=0 bluray_compat=0 constrained_intra=0 bframes=3 b_pyramid=2 b_adapt=1 b_bias=0 direct=3 weightb=1 open_gop=0 weightp=2 keyint=250 keyint_min=25 scenecut=40 intra_refresh=0 rc_lookahead=50 rc=cbr mbtree=1 bitrate=2500 ratetol=1.0 qcomp=0.60 qpmin=0 qpmax=69 qpstep=4 vbv_maxrate=2500 vbv_bufsize=2500 nal_hrd=none filler=0 ip_ratio=1.40 aq=1:1.00\nOutput #0, mp4, to 'C:\\Users\\Peter\\Desktop\\stuff\\MIUN\\quantitative_research\\video_compression\\compressed_videos\\UVG\\h264\\2.5\\HoneyBee_1920x1080_120fps_420_8bit_YUV_h264.mp4':\n  Metadata:\n    encoder         : Lavf62.3.100\n  Stream #0:0: Video: h264 (avc1 / 0x31637661), yuv420p(tv, progressive), 1920x1080, q=2-31, 2500 kb/s, 120 fps, 15360 tbn\n    Metadata:\n      encoder         : Lavc62.11.100 libx264\n    Side data:\n      cpb: bitrate max/min/avg: 2500000/0/2500000 buffer size: 2500000 vbv_delay: N/A\nframe=    0 fps=0.0 q=0.0 size=       0KiB time=N/A bitrate=N/A speed=N/A elapsed=0:00:00.51    \nframe=   24 fps= 23 q=42.0 size=       0KiB time=00:00:00.15 bitrate=   2.6kbits/s speed=0.146x elapsed=0:00:01.03    \nframe=   68 fps= 44 q=40.0 size=       0KiB time=00:00:00.52 bitrate=   0.7kbits/s speed=0.339x elapsed=0:00:01.54    \nframe=  112 fps= 54 q=38.0 size=       0KiB time=00:00:00.91 bitrate=   0.4kbits/s speed=0.442x elapsed=0:00:02.07    \nframe=  160 fps= 62 q=38.0 size=       0KiB time=00:00:01.29 bitrate=   0.3kbits/s speed=0.497x elapsed=0:00:02.59    \nframe=  204 fps= 65 q=40.0 size=       0KiB time=00:00:01.68 bitrate=   0.2kbits/s speed=0.535x elapsed=0:00:03.14    \nframe=  233 fps= 64 q=40.0 size=       0KiB time=00:00:01.92 bitrate=   0.2kbits/s speed=0.527x elapsed=0:00:03.65    \nframe=  282 fps= 67 q=38.0 size=     256KiB time=00:00:02.33 bitrate= 898.9kbits/s speed=0.559x elapsed=0:00:04.17    \nframe=  326 fps= 70 q=38.0 size=     256KiB time=00:00:02.70 bitrate= 776.9kbits/s speed=0.576x elapsed=0:00:04.68    \nframe=  374 fps= 72 q=38.0 size=     256KiB time=00:00:03.10 bitrate= 676.6kbits/s speed=0.595x elapsed=0:00:05.20    \nframe=  418 fps= 73 q=38.0 size=     256KiB time=00:00:03.46 bitrate= 605.1kbits/s speed=0.605x elapsed=0:00:05.72    \nframe=  462 fps= 74 q=40.0 size=     256KiB time=00:00:03.83 bitrate= 547.2kbits/s speed=0.613x elapsed=0:00:06.24    \nframe=  488 fps= 72 q=40.0 size=     256KiB time=00:00:04.05 bitrate= 517.9kbits/s speed=0.598x elapsed=0:00:06.77    \nframe=  546 fps= 75 q=37.0 size=     512KiB time=00:00:04.51 bitrate= 928.7kbits/s speed=0.62x elapsed=0:00:07.28    \n[mp4 @ 0000021d03199bc0] Starting second pass: moving the moov atom to the beginning of the file\n[out#0/mp4 @ 0000021d03199ac0] video:631KiB audio:0KiB subtitle:0KiB other streams:0KiB global headers:0KiB muxing overhead: 1.243833%\nframe=  600 fps= 78 q=-1.0 Lsize=     639KiB time=00:00:04.98 bitrate=1051.0kbits/s speed=0.646x elapsed=0:00:07.71    \n[libx264 @ 0000021d0319cb80] frame I:3     Avg QP:36.17  size: 47801\n[libx264 @ 0000021d0319cb80] frame P:151   Avg QP:33.78  size:  2047\n[libx264 @ 0000021d0319cb80] frame B:446   Avg QP:39.79  size:   434\n[libx264 @ 0000021d0319cb80] consecutive B-frames:  0.8%  0.0%  0.5% 98.7%\n[libx264 @ 0000021d0319cb80] mb I  I16..4: 36.1% 60.2%  3.6%\n[libx264 @ 0000021d0319cb80] mb P  I16..4:  0.0%  0.0%  0.0%  P16..4:  8.7%  0.3%  4.2%  0.0%  0.0%    skip:86.8%\n[libx264 @ 0000021d0319cb80] mb B  I16..4:  0.0%  0.0%  0.0%  B16..8:  7.8%  0.0%  0.0%  direct: 0.0%  skip:92.2%  L0: 5.3% L1:94.7% BI: 0.0%\n[libx264 @ 0000021d0319cb80] 8x8 transform intra:60.1% inter:88.2%\n[libx264 @ 0000021d0319cb80] direct mvs  spatial:97.8% temporal:2.2%\n[libx264 @ 0000021d0319cb80] coded y,uvDC,uvAC intra: 37.8% 69.8% 32.0% inter: 0.2% 0.9% 0.0%\n[libx264 @ 0000021d0319cb80] i16 v,h,dc,p: 31% 18%  7% 44%\n[libx264 @ 0000021d0319cb80] i8 v,h,dc,ddl,ddr,vr,hd,vl,hu:  6%  5%  3% 12% 17% 17% 15% 12% 13%\n[libx264 @ 0000021d0319cb80] i4 v,h,dc,ddl,ddr,vr,hd,vl,hu:  7%  4%  2% 13% 17% 16% 15% 12% 14%\n[libx264 @ 0000021d0319cb80] i8c dc,h,v,p: 39% 15% 19% 27%\n[libx264 @ 0000021d0319cb80] Weighted P-Frames: Y:0.0% UV:0.0%\n[libx264 @ 0000021d0319cb80] ref P L0: 70.6% 19.9%  5.7%  1.9%  1.9%\n[libx264 @ 0000021d0319cb80] ref B L0: 90.5%  6.1%  2.8%  0.5%\n[libx264 @ 0000021d0319cb80] ref B L1: 99.3%  0.7%\n[libx264 @ 0000021d0319cb80] kb/s:1033.39\n",
  "seconds": 7.843410015106201,
  "probe_out": {}
}